<?xml version="1.0" encoding="UTF-8" standalone="no"?><!DOCTYPE svg PUBLIC "-//W3C//DTD SVG 1.1//EN" "http://www.w3.org/Graphics/SVG/1.1/DTD/svg11.dtd"><svg width="30px" height="30px" viewBox="0 0 755 638" version="1.1" xmlns="http://www.w3.org/2000/svg" xmlns:xlink="http://www.w3.org/1999/xlink" xml:space="preserve" xmlns:serif="http://www.serif.com/" style="fill-rule:evenodd;clip-rule:evenodd;stroke-linecap:round;stroke-linejoin:round;stroke-miterlimit:1.5;"><path d="M377.192,0c-0,0 259.491,131.871 259.491,306c0,174.129 -107,325 -261,331c-135.392,5.275 -259.818,-156.903 -258,-326c2,-186 259.509,-311 259.509,-311Z" style="fill:#612800;"/><ellipse cx="291.298" cy="298.336" rx="41.615" ry="42.336" style="stroke:#fff;stroke-width:17.37px;"/><ellipse cx="465.456" cy="298.336" rx="41.615" ry="42.336" style="stroke:#fff;stroke-width:17.37px;"/><path d="M153.683,392c0,0 -37,-4 -71,-31.122c-50.488,-40.274 -53,-90.878 -53,-90.878" style="fill:none;stroke:#000;stroke-width:17.37px;"/><path d="M153.683,392c0,0 -37,-4 -71,-31.122c-50.488,-40.274 -53,-90.878 -53,-90.878" style="fill:none;stroke:#000;stroke-width:17.37px;"/><ellipse cx="24.183" cy="253" rx="15.5" ry="17" style="fill:none;stroke:#000;stroke-width:17.37px;"/><path d="M600.683,392c0,0 37,-4 71,-31.122c50.488,-40.274 53,-90.878 53,-90.878" style="fill:none;stroke:#000;stroke-width:17.37px;"/><ellipse cx="730.183" cy="253" rx="15.5" ry="17" style="fill:none;stroke:#000;stroke-width:17.37px;"/><path d="M356.683,349c0,33 42,30 41,1" style="fill:none;stroke:#fff;stroke-width:17.37px;"/></svg>